<svg xmlns="http://www.w3.org/2000/svg" viewBox="0 0 64 64">
  <g fill="none">
    <rect width="64" height="64" fill="#FF00D4" opacity=".2"/>
    <rect width="56" height="56" x="4" y="4" fill="#FFF" opacity=".9"/>
    <path fill="#00ABFF" d="M40.4582117,22.1275747 C38.1846769,20.1779025 35.2298954,19 32,19 C28.7701046,19 25.8153231,20.1779025 23.5417883,22.1275747 L32,30.5857864 L40.4582117,22.1275747 Z M41.8760439,20.7097426 L51.0793307,11.5064557 C46.0790514,6.84917093 39.3722555,4 32,4 C24.6277445,4 17.9209486,6.84917093 12.9206693,11.5064557 L22.1239561,20.7097426 C24.7624525,18.3998623 28.2177486,17 32,17 C35.7822514,17 39.2375475,18.3998623 41.8760439,20.7097426 L41.8760439,20.7097426 Z M52.4935443,12.9206693 L43.2902574,22.1239561 C45.6001377,24.7624525 47,28.2177486 47,32 C47,35.7822514 45.6001377,39.2375475 43.2902574,41.8760439 L52.4935443,51.0793307 C57.1508291,46.0790514 60,39.3722555 60,32 C60,24.6277445 57.1508291,17.9209486 52.4935443,12.9206693 Z M41.8724253,23.5417883 L33.4142136,32 L41.8724253,40.4582117 C43.8220975,38.1846769 45,35.2298954 45,32 C45,28.7701046 43.8220975,25.8153231 41.8724253,23.5417883 Z M51.0793307,52.4935443 L41.8760439,43.2902574 C39.2375475,45.6001377 35.7822514,47 32,47 C28.2177486,47 24.7624525,45.6001377 22.1239561,43.2902574 L12.9206693,52.4935443 C17.9209486,57.1508291 24.6277445,60 32,60 C39.3722555,60 46.0790514,57.1508291 51.0793307,52.4935443 Z M40.4582117,41.8724253 L32,33.4142136 L23.5417883,41.8724253 C25.8153231,43.8220975 28.7701046,45 32,45 C35.2298954,45 38.1846769,43.8220975 40.4582117,41.8724253 Z M11.5064557,51.0793307 L20.7097426,41.8760439 C18.3998623,39.2375475 17,35.7822514 17,32 C17,28.2177486 18.3998623,24.7624525 20.7097426,22.1239561 L11.5064557,12.9206693 C6.84917093,17.9209486 4,24.6277445 4,32 C4,39.3722555 6.84917093,46.0790514 11.5064557,51.0793307 Z M22.1275747,40.4582117 L30.5857864,32 L22.1275747,23.5417883 C20.1779025,25.8153231 19,28.7701046 19,32 C19,35.2298954 20.1779025,38.1846769 22.1275747,40.4582117 Z M32,2 C48.5685425,2 62,15.4314575 62,32 C62,48.5685425 48.5685425,62 32,62 C15.4314575,62 2,48.5685425 2,32 C2,15.4314575 15.4314575,2 32,2 Z" opacity=".6"/>
  </g>
</svg>
